# xmcd
#
# Track frame offsets:
#	150
#	4536
#	21065
#	37819
#	55580
#	82812
#	100584
#	119893
#	132847
#	159270
#
# Disc length: 2663 seconds
#
# Revision: 0
# Processed by: cddbd v1.5.2PL0 Copyright (c) Steve Scherf et al.
# Submitted via: EZCDAudioConverter 1.3.4.1
#
DISCID=650a650a
DTITLE=Cass McCombs - Big Wheel And Others 2/2
DYEAR=1900
DGENRE=
TTITLE0=It Means A Lot To Know You Care
TTITLE1=Dealing
TTITLE2=Sooner Cheat Death Than Fool Love
TTITLE3=Satan Is My Toy
TTITLE4=Home On The Range
TTITLE5=Brighter!
TTITLE6=Untitled Spain Song
TTITLE7=Honesty Is No Excuse
TTITLE8=Aeon Of Aquarius Blues
TTITLE9=Unearthed
EXTD=
EXTT0=
EXTT1=
EXTT2=
EXTT3=
EXTT4=
EXTT5=
EXTT6=
EXTT7=
EXTT8=
EXTT9=
PLAYORDER=
